<svg xmlns="http://www.w3.org/2000/svg" viewBox="0 0 512 511.8"><path d="M483 511.8c-7-2.4-12.1-7.1-17.2-12.2-50.7-50.8-101.5-101.6-152.3-152.3-1.2-1.2-2-2.7-3.1-4.1-2 1.3-3.2 2.1-4.4 2.9C191.8 430 30 366.6 3.4 227.4c-1.5-7.4-2.3-15-3.4-22.6v-26c1.7-10.2 2.9-20.4 5.1-30.4C21.5 74.2 84.1 15.2 159.2 2.7c104.2-17.3 201.5 49.8 221.3 153.6 10.1 53.1-1.2 102.2-32.1 146.6-1.4 2-2.9 4-6 7.8 1.7.8 3.7 1.3 4.9 2.5 50.8 50.7 101.6 101.6 152.4 152.3 5.1 5.1 9.9 10.3 12.2 17.2v10c-3.2 9.5-9.5 15.8-19 19-3.2.1-6.6.1-9.9.1zm-147-320c0-79-64.5-143.9-143.1-144C112.6 47.7 48.1 112 48 192.1c-.1 78.9 64.7 143.7 143.9 143.8 79.3 0 144.1-64.7 144.1-144.1z"/></svg>