<svg xmlns="http://www.w3.org/2000/svg" viewBox="0 0 135 44.5"><path fill="#888" d="M135 20.3s-.1-.2-.4-.6c-.3-.4-.6-.9-1.1-1.6-1-1.4-2.4-3.2-4.3-5.1-1.8-1.9-4.1-3.9-6.7-5.8-2.6-1.8-5.5-3.5-8.6-4.7-3.2-1.2-6.6-2-10.2-2.3-3.6-.3-7.4-.2-11.4.6-4 .7-8 2.1-12.2 3.7-2.1.8-4.2 1.7-6.3 2.5-2.1.8-4.2 1.7-6.3 2.4-4.2 1.5-8.4 2.6-12.6 3.4-4.2.8-8.2 1.6-12.2 2.4-4 .7-7.8 1.4-11.4 2.1-3.6.6-7.1 1.2-10.2 1.7-3.2.5-6.1 1-8.6 1.3-2.6.4-4.8.7-6.7.9-3.7.3-5.8.6-5.8.6v1s2.1.2 5.8.7c1.8.2 4.1.5 6.7.9 2.6.3 5.5.8 8.6 1.3 3.2.5 6.6 1.1 10.2 1.7 3.6.7 7.4 1.4 11.4 2.1 4 .8 8 1.6 12.2 2.4 4.2.8 8.4 1.9 12.6 3.4 2.1.7 4.2 1.6 6.3 2.4 2.1.8 4.2 1.7 6.3 2.5 4.2 1.6 8.2 3 12.2 3.7 4 .7 7.8.9 11.4.6 3.6-.2 7.1-1 10.2-2.3 3.2-1.2 6.1-2.8 8.6-4.7 2.6-1.9 4.8-3.9 6.7-5.8 1.8-1.9 3.3-3.8 4.3-5.1.5-.7.9-1.2 1.1-1.6.3-.4.4-.6.4-.6v-4.1z"/></svg>