<svg id="Слой_1" xmlns="http://www.w3.org/2000/svg" viewBox="0 0 235 235"><style>.st0{fill:#fff}.st1{fill:none;stroke:#000;stroke-width:2;stroke-miterlimit:10}.st2{opacity:.7}.st3{opacity:.45}</style><circle class="st0" cx="117.5" cy="117.5" r="117.5"/><path class="st1" d="M175.5 59.5l-58 58m0 0l-58 58m0-116l58 58m0 0l58 58"/><path class="st2" d="M106.9 46.7h5.4V84h17.8v4.5h-23.2V46.7z"/><path class="st3" d="M167.8 136c-13.9 0-21.3-8.5-21.3-18.8 0-10.7 8.3-18.2 20.5-18.2 12.8 0 21.2 8 21.2 18.8 0 11-8.4 18.2-20.4 18.2zm-.7-31.4c-8.6 0-16.4 4.7-16.4 12.9 0 8.3 7.6 13 16.8 13 8 0 16.4-4.2 16.4-12.9.1-8.7-7.9-13-16.8-13zM46.8 117.8C46.8 107 55.1 99 68 99c12.2 0 20.5 7.5 20.5 18.2 0 10.3-7.4 18.8-21.3 18.8-12 0-20.4-7.2-20.4-18.2zm4.2-.2c0 8.7 8.4 12.9 16.4 12.9 9.2 0 16.8-4.7 16.8-13 0-8.2-7.7-12.9-16.4-12.9-8.8 0-16.8 4.3-16.8 13zm51.2 31.1c2.3-.8 7-2.2 12.4-2.2 6.1 0 11.2 1.6 15.1 5.3 3.5 3.4 5.6 8.8 5.6 15.1-.1 12.1-8.3 20.9-21.9 20.9-4.7 0-8.3-1-10.1-1.9l1.3-4.3c2.2 1 4.9 1.7 8.9 1.7 9.8 0 16.3-6.1 16.3-16.3 0-10.3-6.2-16.3-15.6-16.3-3.4 0-5.8.5-7 1.1V164h8.2v4.2h-13.3v-19.5z"/></svg>