<svg xmlns="http://www.w3.org/2000/svg" width="612" height="612" viewBox="0 0 612 612"><g fill="#ccc"><path d="M349.146 402.251c0-30.016-17.387-44.815-36.525-60.922l-15.662-12.185c-4.785-3.895-11.294-9.124-11.294-18.693 0-9.57 6.537-15.662 12.184-21.309 18.249-14.354 36.526-29.571 36.526-61.756 0-33.076-20.892-50.462-30.878-58.724h26.956L358.271 153h-89.603c-23.479 0-53.049 3.478-77.863 23.924-18.693 16.079-27.818 38.278-27.818 58.279 0 33.911 26.093 68.294 72.188 68.294 4.368 0 9.125-.445 13.937-.863-2.17 5.23-4.34 9.569-4.34 16.97 0 13.464 6.955 21.753 13.047 29.57-19.556 1.308-56.109 3.478-83.065 20.001-25.676 15.217-33.493 37.416-33.493 53.077 0 32.186 30.461 62.201 93.525 62.201 74.775.001 114.36-41.337 114.36-82.202zM255.621 291.34c-37.415 0-54.384-48.292-54.384-77.418 0-11.322 2.17-23.034 9.569-32.186 6.955-8.707 19.139-14.382 30.461-14.382 36.108 0 54.802 48.738 54.802 80.033 0 7.845-.862 21.754-10.877 31.768-6.955 6.955-18.694 12.157-29.571 12.185zm.445 174.837c-46.54 0-76.556-22.171-76.556-53.049s27.846-41.311 37.416-44.787c18.276-6.093 41.755-6.982 45.677-6.982 4.34 0 6.51 0 9.987.445 33.076 23.479 47.402 35.218 47.402 57.416 0 26.956-22.171 46.957-63.926 46.957z"/><path d="M353.068 317.768h47.096v47.068h23.535v-47.068h47.069v-23.535h-47.069v-47.068h-23.535v47.068h-47.096z"/><path d="M612 306C612 137.004 474.995 0 306 0 137.004 0 0 137.004 0 306c0 168.995 137.004 306 306 306 168.995 0 306-137.005 306-306zm-584.182 0C27.818 152.36 152.36 27.818 306 27.818S584.182 152.36 584.182 306 459.64 584.182 306 584.182 27.818 459.64 27.818 306z"/></g></svg>