<svg id="Слой_1" xmlns="http://www.w3.org/2000/svg" viewBox="-298.3 379.7 34.6 34.6"><style>.st0{fill:#ccc}.st1{fill:none;stroke:#ccc;stroke-miterlimit:10}</style><title/><path class="st0" d="M-273 398c.2-.5 1.1-1.7 1.7-2.7 1.9-2.8 2.3-3.4 2.3-3.8 0-.3-.2-.5-.5-.5h-4.5c-.2 0-.4.2-.5.4-.3 1.4-3.5 5.3-4 5.6-.2 0-.5-.5-.5-1.5v-4.2c.1-.3 0-.7-.2-.9-.3-.4-.9-.4-2.3-.4-2.6 0-3.5.8-3.5 1.5 0 .3.2.5.4.5 0 0 .6.4.6 2.5 0 .8 0 1.7-.1 2.5-1.3-.2-3-3.4-3.9-5.7-.1-.2-.3-.3-.5-.3h-4c-.3 0-.5.2-.5.5v.1c.6 3 6.9 12.4 11 12.4h2c1.1 0 1.1-1.1 1.2-1.9s.1-1.1.3-1.1c.6 0 1.9 1.1 2.7 1.8.8.7 1.4 1.2 1.8 1.2h2.5c1.3 0 2.5 0 2.5-1 0-.4-.3-.8-2.2-3-.7-.7-1.5-1.6-1.8-2z" id="VK_Logo"/><circle class="st1" cx="-281" cy="397" r="16.8"/></svg>